<?xml version="1.0" encoding="UTF-8" standalone="no"?>
<!-- Created with Inkscape (http://www.inkscape.org/) -->

<svg
   id="svg2"
   version="1.1"
   inkscape:version="1.1.2 (0a00cf5339, 2022-02-04)"
   width="35"
   height="35"
   xml:space="preserve"
   sodipodi:docname="logo.svg"
   xmlns:inkscape="http://www.inkscape.org/namespaces/inkscape"
   xmlns:sodipodi="http://sodipodi.sourceforge.net/DTD/sodipodi-0.dtd"
   xmlns:xlink="http://www.w3.org/1999/xlink"
   xmlns="http://www.w3.org/2000/svg"
   xmlns:svg="http://www.w3.org/2000/svg"
   xmlns:rdf="http://www.w3.org/1999/02/22-rdf-syntax-ns#"
   xmlns:cc="http://creativecommons.org/ns#"
   xmlns:dc="http://purl.org/dc/elements/1.1/"><metadata
     id="metadata8"><rdf:RDF><cc:Work
         rdf:about=""><dc:format>image/svg+xml</dc:format><dc:type
           rdf:resource="http://purl.org/dc/dcmitype/StillImage" /></cc:Work></rdf:RDF></metadata><defs
     id="defs6"><pattern
       inkscape:collect="always"
       xlink:href="#pattern1790"
       id="pattern2797"
       patternTransform="matrix(0.8,0,0,0.8,2.8716258,-58.482336)" /><clipPath
       clipPathUnits="userSpaceOnUse"
       id="clipPath16"><path
         d="M 0,60 H 100 V 0 H 0 Z"
         id="path18" /></clipPath><clipPath
       clipPathUnits="userSpaceOnUse"
       id="clipPath78"><path
         d="M 0.933594,42.1235 H 21.7124 V 29.6777 H 0.933594 Z"
         id="path80" /></clipPath><clipPath
       clipPathUnits="userSpaceOnUse"
       id="clipPath82"><path
         d="m 14.164,38.275 c 2.085,0 4.068,-0.805 5.582,-2.268 1.803,-1.742 2.086,-4.142 1.815,-6.329 0.237,1.285 0.198,2.533 -0.137,3.675 -0.634,2.166 -2.3,3.817 -4.82,4.777 -0.863,0.329 -1.771,0.496 -2.699,0.496 -5.028,0 -9.344,-4.862 -9.388,-4.912 L 4.207,33.36 1.46,37.509 1.607,37.71 c 2.746,3.77 6.923,4.134 7.214,4.154 0.647,0.077 1.288,0.116 1.904,0.116 1.562,0 2.933,-0.248 4.13,-0.649 -1.555,0.594 -2.741,0.692 -2.757,0.693 -0.589,0.066 -1.163,0.1 -1.717,0.1 -5.929,0 -8.866,-3.757 -9.447,-4.597 l 3.6,-6.671 c 2.133,4.661 5.692,7.419 9.63,7.419"
         id="path84" /></clipPath><linearGradient
       x1="0"
       y1="0"
       x2="1"
       y2="0"
       gradientUnits="userSpaceOnUse"
       gradientTransform="matrix(1.3187542,1.2454499,1.2454499,-1.3187542,5.8085937,28.592773)"
       spreadMethod="pad"
       id="linearGradient86"><stop
         style="stop-opacity:1;stop-color:#ffffff"
         offset="0"
         id="stop88" /><stop
         style="stop-opacity:1;stop-color:#1b75bb"
         offset="1"
         id="stop90" /></linearGradient><clipPath
       clipPathUnits="userSpaceOnUse"
       id="clipPath118"><path
         d="M 4.11133,27.709 H 13.9077 V 19.4941 H 4.11133 Z"
         id="path120" /></clipPath><linearGradient
       x1="0"
       y1="0"
       x2="1"
       y2="0"
       gradientUnits="userSpaceOnUse"
       gradientTransform="matrix(-2.0888145,2.6279864,2.6279864,2.0888145,11.994629,19.054687)"
       spreadMethod="pad"
       id="linearGradient126"><stop
         style="stop-opacity:1;stop-color:#ffffff"
         offset="0"
         id="stop128" /><stop
         style="stop-opacity:1;stop-color:#1b75bb"
         offset="1"
         id="stop130" /></linearGradient><pattern
       patternUnits="userSpaceOnUse"
       width="27.820937"
       height="31.20583"
       patternTransform="translate(0.92190524,1.0316605)"
       id="pattern1790"><g
         id="g1788"
         transform="matrix(1.25,0,0,-1.25,-0.92190524,73.968339)"><g
           id="g70"
           transform="translate(20.184274,41.015114)"><path
             d="m 0,0 c 0,0 4.008,7.555 0,11.426 -4.009,3.868 -11.379,2.902 -14.927,-5.714 l -4.053,7.509 c 0,0 3.408,5.759 11.609,4.839 0,0 7.924,-0.592 10.181,-8.982 0,0 -2.994,9.349 -13.452,8.106 0,0 -4.239,-0.277 -6.957,-4.009 l 2.35,-3.547 c 0,0 6.082,6.957 12.485,4.516 C 3.64,11.702 3.917,5.297 0,0"
             style="fill:#1e71b8;fill-opacity:1;fill-rule:nonzero;stroke:none"
             id="path72" /></g><g
           id="g106"
           transform="translate(3.2765741,49.675814)"><path
             d="m 0,0 c 0,0 -1.889,-2.534 -1.429,-5.804 l 4.285,-0.83 c 0,0 -0.276,7.002 4.239,8.891 0,0 -5.068,-4.008 -1.244,-11.471 l -8.201,2.533 c 0,0 -1.105,3.694 2.028,7.098 z"
             style="fill:#808080;fill-opacity:1;fill-rule:nonzero;stroke:none"
             id="path108" /></g><g
           id="g110"
           transform="translate(8.8165741,47.841814)"><path
             d="M 0,0 C 0,0 -1.678,-4.258 2.937,-8.419 L -1,-10.775 c 0,0 -2.162,1.548 -2.71,4.162 l -0.774,0.129 c 0,0 0.677,-4.001 3.419,-5.581 l 7.711,3.774 c 0,0 -7.324,2.678 -6.646,8.291"
             style="fill:#1e71b8;fill-opacity:1;fill-rule:nonzero;stroke:none"
             id="path112" /></g><g
           id="g146"
           transform="translate(19.955274,34.331514)"><path
             d="m 0,0 c -0.669,-0.235 -1.375,-0.118 -1.919,0.255 l 3.26,1.142 C 1.147,0.767 0.669,0.232 0,0"
             style="fill:#808080;fill-opacity:1;fill-rule:evenodd;stroke:none"
             id="path148" /></g><g
           id="g150"
           transform="translate(16.500174,37.876514)"><path
             d="m 0,0 c -0.322,-0.112 -0.677,0.057 -0.79,0.38 -0.113,0.323 0.058,0.677 0.38,0.79 L 3.531,2.55 C 3.854,2.664 4.208,2.493 4.321,2.17 4.434,1.849 4.264,1.494 3.941,1.38 Z"
             style="fill:#808080;fill-opacity:1;fill-rule:evenodd;stroke:none"
             id="path152" /></g><g
           id="g154"
           transform="translate(17.027074,36.374514)"><path
             d="m 0,0 c -0.323,-0.114 -0.676,0.056 -0.79,0.379 -0.113,0.323 0.057,0.678 0.38,0.79 l 3.941,1.38 C 3.854,2.662 4.207,2.493 4.321,2.17 4.434,1.848 4.264,1.494 3.94,1.38 Z"
             style="fill:#808080;fill-opacity:1;fill-rule:evenodd;stroke:none"
             id="path156" /></g><g
           id="g158"
           transform="translate(17.552874,34.871614)"><path
             d="m 0,0 c -0.322,-0.114 -0.675,0.057 -0.79,0.378 -0.113,0.325 0.058,0.678 0.381,0.792 l 3.94,1.382 C 3.854,2.664 4.208,2.493 4.321,2.172 4.434,1.847 4.265,1.494 3.941,1.38 Z"
             style="fill:#808080;fill-opacity:1;fill-rule:evenodd;stroke:none"
             id="path160" /></g><g
           style="fill:#808080"
           id="g344"
           transform="matrix(0.01559642,0,0,-0.01559642,11.249263,51.193444)"
           inkscape:transform-center-x="-2.6009109"
           inkscape:transform-center-y="-3.9451159"><g
             id="g330"
             style="fill:#808080">
	<g
   id="g322"
   style="fill:#808080">
		<path
   d="m 491.102,238.031 v -33.892 c 0,-27.472 -5.39,-54.146 -16.021,-79.278 C 464.821,100.606 450.144,78.833 431.457,60.144 412.769,41.456 390.995,26.779 366.74,16.521 341.607,5.891 314.934,0.5 287.461,0.5 259.988,0.5 233.315,5.891 208.182,16.521 183.927,26.78 162.154,41.456 143.465,60.144 124.777,78.832 110.099,100.606 99.841,124.861 89.211,149.994 83.82,176.667 83.82,204.139 v 33.892 c -29.34,2.925 -52.328,27.753 -52.328,57.85 v 220.4 c 0,32.059 26.082,58.141 58.14,58.141 h 395.657 c 32.059,0 58.141,-26.082 58.141,-58.141 v -220.4 c 0.001,-30.097 -22.988,-54.924 -52.328,-57.85 z M 74.333,516.281 v -220.4 c 0,-6.391 3.921,-11.865 9.489,-14.154 1.792,-0.736 3.753,-1.146 5.812,-1.146 h 15.609 21.42 321.6 21.421 15.608 c 2.058,0 4.02,0.409 5.812,1.146 5.567,2.289 9.488,7.763 9.488,14.154 v 220.4 c 0,8.451 -6.85,15.301 -15.3,15.301 H 89.633 c -8.45,0 -15.3,-6.852 -15.3,-15.301 z m 52.329,-312.142 c 0,-88.807 71.993,-160.799 160.8,-160.799 v 0 c 88.807,0 160.8,71.993 160.8,160.799 v 33.602 h -321.6 z"
   id="path318"
   style="fill:#808080" />
		<path
   d="M 485.289,574.922 H 89.632 c -32.334,0 -58.64,-26.306 -58.64,-58.641 v -220.4 c 0,-14.615 5.431,-28.626 15.292,-39.451 9.692,-10.64 22.83,-17.322 37.036,-18.849 V 204.14 c 0,-27.539 5.403,-54.277 16.061,-79.473 10.283,-24.314 24.997,-46.141 43.731,-64.875 18.733,-18.733 40.561,-33.446 64.875,-43.73 C 233.184,5.403 259.922,0 287.461,0 315,0 341.739,5.403 366.935,16.061 c 24.314,10.283 46.142,24.996 64.876,43.73 18.732,18.734 33.446,40.561 43.731,64.875 10.656,25.194 16.06,51.933 16.06,79.473 v 33.441 c 14.207,1.527 27.345,8.21 37.037,18.85 9.861,10.825 15.291,24.835 15.291,39.451 v 220.4 c 0,32.335 -26.306,58.641 -58.641,58.641 z M 287.461,1 c -27.404,0 -54.012,5.377 -79.084,15.981 -24.196,10.234 -45.916,24.875 -64.558,43.516 -18.643,18.643 -33.284,40.363 -43.517,64.558 -10.604,25.072 -15.981,51.679 -15.981,79.083 v 34.345 l -0.451,0.045 c -14.132,1.409 -27.218,8.005 -36.846,18.575 -9.693,10.64 -15.031,24.412 -15.031,38.777 v 220.4 c 0,31.783 25.857,57.641 57.64,57.641 H 485.29 c 31.783,0 57.641,-25.857 57.641,-57.641 v -220.4 c 0,-14.366 -5.338,-28.137 -15.03,-38.777 -9.628,-10.569 -22.714,-17.166 -36.848,-18.575 l -0.45,-0.045 v -34.345 c 0,-27.406 -5.377,-54.014 -15.981,-79.083 C 464.388,100.86 449.747,79.139 431.105,60.497 412.462,41.855 390.742,27.214 366.547,16.981 341.474,6.377 314.866,1 287.461,1 Z m 197.83,531.082 H 89.633 c -8.712,0 -15.8,-7.088 -15.8,-15.801 v -220.4 c 0,-6.432 3.846,-12.169 9.799,-14.616 1.91,-0.785 3.93,-1.183 6.001,-1.183 h 395.658 c 2.072,0 4.091,0.398 6.002,1.183 5.952,2.447 9.798,8.185 9.798,14.616 v 220.4 c 0,8.713 -7.088,15.801 -15.8,15.801 z m -395.658,-251 c -1.941,0 -3.832,0.373 -5.622,1.108 -5.576,2.292 -9.179,7.667 -9.179,13.691 v 220.4 c 0,8.161 6.639,14.801 14.8,14.801 H 485.29 c 8.16,0 14.8,-6.64 14.8,-14.801 v -220.4 c 0,-6.024 -3.603,-11.399 -9.179,-13.691 -1.789,-0.735 -3.681,-1.108 -5.621,-1.108 z m 359.129,-42.841 h -322.6 v -34.102 c 0,-88.941 72.359,-161.299 161.3,-161.299 88.941,0 161.3,72.358 161.3,161.299 z m -321.6,-1 h 320.6 v -33.102 c 0,-88.389 -71.91,-160.299 -160.3,-160.299 -88.39,0 -160.3,71.91 -160.3,160.299 z"
   id="path320"
   style="fill:#808080" />
	</g>
	<g
   id="g328"
   style="fill:#808080">
		<path
   d="m 287.461,302.375 c -34.337,0 -62.272,27.936 -62.272,62.273 0,26.639 16.816,49.422 40.388,58.299 v 40.58 8.488 c 0,5.18 1.838,9.93 4.898,13.635 3.928,4.756 9.871,7.787 16.521,7.787 6.609,0 12.518,-2.996 16.447,-7.701 3.104,-3.717 4.973,-8.5 4.973,-13.721 v -8.357 -40.369 c 24.059,-8.623 41.317,-31.652 41.317,-58.641 10e-4,-34.337 -27.934,-62.273 -62.272,-62.273 z m 0,81.707 c -10.732,0 -19.433,-8.701 -19.433,-19.434 0,-10.733 8.701,-19.434 19.433,-19.434 10.732,0 19.433,8.701 19.433,19.434 0,10.733 -8.7,19.434 -19.433,19.434 z"
   id="path324"
   style="fill:#808080" />
		<path
   d="m 286.997,493.938 c -6.562,0 -12.724,-2.904 -16.907,-7.969 -3.233,-3.914 -5.013,-8.869 -5.013,-13.953 v -48.724 c -24.171,-9.257 -40.388,-32.779 -40.388,-58.644 0,-34.613 28.16,-62.773 62.772,-62.773 34.612,0 62.773,28.16 62.773,62.773 0,26.31 -16.59,49.972 -41.317,58.991 v 48.376 c 0,5.125 -1.808,10.111 -5.089,14.041 -4.182,5.009 -10.317,7.882 -16.831,7.882 z m 0.464,-191.063 c -34.062,0 -61.772,27.712 -61.772,61.773 0,25.566 16.101,48.807 40.064,57.831 l 0.324,0.122 v 49.414 c 0,4.852 1.699,9.581 4.784,13.316 3.992,4.833 9.874,7.605 16.136,7.605 6.216,0 12.071,-2.741 16.063,-7.521 3.132,-3.751 4.856,-8.51 4.856,-13.4 v -49.078 l 0.331,-0.119 c 24.516,-8.786 40.986,-32.163 40.986,-58.17 10e-4,-34.061 -27.71,-61.773 -61.772,-61.773 z m 0,81.707 c -10.991,0 -19.933,-8.942 -19.933,-19.934 0,-10.992 8.942,-19.934 19.933,-19.934 10.991,0 19.933,8.942 19.933,19.934 0,10.992 -8.942,19.934 -19.933,19.934 z m 0,-38.867 c -10.439,0 -18.933,8.493 -18.933,18.934 0,10.441 8.493,18.934 18.933,18.934 10.44,0 18.933,-8.493 18.933,-18.934 0,-10.441 -8.493,-18.934 -18.933,-18.934 z"
   id="path326"
   style="fill:#808080" />
	</g>
</g></g></g></pattern></defs><sodipodi:namedview
     pagecolor="#ffffff"
     bordercolor="#666666"
     borderopacity="1"
     objecttolerance="10"
     gridtolerance="10"
     guidetolerance="10"
     inkscape:pageopacity="0"
     inkscape:pageshadow="2"
     inkscape:window-width="1954"
     inkscape:window-height="1128"
     id="namedview4"
     showgrid="false"
     inkscape:zoom="6.24"
     inkscape:cx="23.717949"
     inkscape:cy="29.00641"
     inkscape:window-x="468"
     inkscape:window-y="144"
     inkscape:window-maximized="0"
     inkscape:current-layer="g14"
     inkscape:pagecheckerboard="0" /><g
     id="g10"
     inkscape:groupmode="layer"
     inkscape:label="logo-with-name"
     transform="matrix(1.25,0,0,-1.25,0,75)"><g
       id="g12"><g
         id="g14"
         clip-path="url(#clipPath16)"><g
           id="g74"><g
             id="g76" /><g
             id="g92"><g
               clip-path="url(#clipPath78)"
               id="g94"><g
                 id="g96"><g
                   clip-path="url(#clipPath82)"
                   id="g98"><g
                     id="g100"><g
                       id="g102" /></g></g></g></g></g></g><g
           id="g114"><g
             id="g116" /><g
             id="g132"><g
               clip-path="url(#clipPath118)"
               id="g134"><g
                 id="g136"><g
                   id="g138"><g
                     id="g140"><g
                       id="g142" /></g></g></g></g></g></g><rect
           style="fill:url(#pattern2797);stroke:none;stroke-width:0.8"
           transform="scale(1,-1)"
           width="22.256748"
           height="24.964664"
           x="2.8716259"
           y="-58.48233"
           id="rect1815" /></g></g></g></svg>
